# xmcd CD database file
#
# Track frame offsets:
#	187
#	9595
#	19967
#	34837
#	47400
#	58212
#	69580
#	82820
#	94335
#	104585
#	116610
#	133287
#	144675
#	155287
#	164875
#	177560
#
# Disc length: 2533 seconds
#
# Revision: 4
# Processed by: cddbd v1.5.2PL0 Copyright (c) Steve Scherf et al.
# Submitted via: jetAudio 7
#
DISCID=e809e310
DTITLE=Chet Atkins - Guitar For All Seasons
DYEAR=1988
DGENRE=Country
TTITLE0=Yakety Axe
TTITLE1=White Silver Sands
TTITLE2=Yellow Bird
TTITLE3=Stranger On The Shore
TTITLE4=Meet Mister Callaghan
TTITLE5=Wheels
TTITLE6=Mrs. Robinson
TTITLE7=Anna (El Negro Zumbon)
TTITLE8=Snowbird
TTITLE9=Green, Green Grass Of Home
TTITLE10=Battle Of New Orleans - Sugarfoot Rag
TTITLE11=Orange Blossom Special
TTITLE12=Delicado
TTITLE13=Siboney
TTITLE14=Malagueña
TTITLE15=Manhã De Carnaval
EXTD=
EXTT0=
EXTT1=
EXTT2=
EXTT3=
EXTT4=
EXTT5=
EXTT6=
EXTT7=
EXTT8=
EXTT9=
EXTT10=
EXTT11=
EXTT12=
EXTT13=
EXTT14=
EXTT15=
PLAYORDER=
